<svg height="512pt" viewBox="0 -12 512 512" width="512pt" xmlns="http://www.w3.org/2000/svg"><path d="m360 246.316406c0-44.179687-46.5625-80-104-80s-104 35.820313-104 80c0 44.183594 46.5625 80 104 80s104-35.816406 104-80zm0 0" fill="#fff5d7"/><g fill="#ff8086"><path d="m120.75 39.355469c-37.546875 10.542969-23.300781-2.296875-45.25 28.75-2.578125 3.644531 7.558594 30.421875 7.558594 30.421875l91.433594 59.90625c6.140624 4.023437 14.007812-1.660156 12.113281-8.753906l-24.234375-90.890626c-1.132813-4.25-37.386719-20.625-41.621094-19.433593zm0 0"/><path d="m354.957031 67.066406-41.542969 63.40625c-4.023437 6.140625 1.660157 14.007813 8.753907 12.113282l101.746093-27.132813c4.253907-1.132813 7.277344-25.113281 6.085938-29.347656-10.542969-37.546875-14.285156-3.714844-45.332031-25.667969-3.648438-2.578125-27.265625 2.894531-29.710938 6.628906zm0 0"/><path d="m317.394531 354.203125 34.136719 128.015625c1.132812 4.25 5.519531 6.90625 9.75 5.695312 33.578125-9.597656 62.378906-30.382812 82.175781-58.101562 2.59375-3.632812 1.484375-8.730469-2.25-11.175781l-42.734375-28-14.097656-3.65625-3.347656-7.773438-51.519532-33.753906c-6.144531-4.023437-14.007812 1.65625-12.113281 8.75zm0 0"/><path d="m291.554688 18.851562 9.433593 46.945313c1.445313 7.199219 11.015625 8.808594 14.738281 2.480469l24.085938-40.925782c2.398438-4.078124.757812-9.347656-3.511719-11.378906-11.800781-5.617187-24.796875-7.863281-37.570312-6.734375-4.761719.421875-8.117188 4.925781-7.175781 9.613281zm0 0"/><path d="m115.738281 386.921875-29.839843 7.730469-9.066407 12.621094c4.378907 12.386718 3.4375 17.070312 13.332031 25.332031l15.691407-5.628907 18.550781-27.878906c4.066406-6.113281-1.558594-14.015625-8.667969-12.175781zm0 0"/></g><path d="m61.191406 317.015625 10.835938-9.175781c5.601562-4.742188 2.390625-13.898438-4.949219-14.101563l-14.109375-.390625c-4.847656-.132812-8.957031 4.078125-8.183594 8.863282.6875 4.246093 2.03125 8.339843 3.960938 12.132812 2.382812 4.6875 8.429687 6.070312 12.445312 2.671875zm0 0" fill="#ff9a9f"/><path d="m465.222656 172.054688-10.835937 9.175781c-5.605469 4.746093-2.390625 13.898437 4.949219 14.101562l14.109374.390625c4.847657.132813 8.957032-4.074218 8.183594-8.863281-.6875-4.246094-2.035156-8.339844-3.964844-12.132813-2.382812-4.6875-8.429687-6.070312-12.441406-2.671874zm0 0" fill="#ff9a9f"/><path d="m204.222656 358.90625-29.992187 49.429688 20.769531 28.519531 16.289062-14.605469 7.703126-58.140625c1.140624-8.585937-10.277344-12.605469-14.769532-5.203125zm0 0" fill="#ff8086"/><path d="m174.230469 408.335938-14.609375 24.074218c-2.035156 3.351563-1.296875 7.648438 1.625 10.265625 10.410156 9.316407 23.191406 15.304688 36.6875 17.507813 4.457031.730468 8.652344-2.414063 9.246094-6.894532l4.109374-31.039062c-12.972656-3.289062-25.371093-8-37.058593-13.914062zm0 0" fill="#e5646e"/><path d="m85.902344 394.652344-16.144532 4.183594c-4.535156 1.175781-7.152343 6.007812-5.589843 10.425781 4.378906 12.386719 12.023437 23.226562 21.921875 31.492187 3.640625 3.039063 9.15625 2.167969 11.785156-1.78125l7.980469-11.996094c-10.578125-7.410156-17.996094-18.96875-19.953125-32.324218zm0 0" fill="#e5646e"/><path d="m148.292969 6c-1.132813-4.25-5.523438-6.902344-9.757813-5.714844-37.546875 10.542969-69.71875 33.773438-91.671875 64.820313-2.574219 3.644531-1.46875 8.746093 2.265625 11.191406l33.929688 22.226563c1.59375-13.523438 7.554687-36.191407 29.453125-41.445313 13.3125-3.195313 31.390625 8.125 49.859375 1.710937zm0 0" fill="#e5646e"/><path d="m471.5625 94.515625c-10.542969-37.546875-33.773438-69.722656-64.820312-91.671875-3.644532-2.578125-8.746094-1.46875-11.191407 2.265625l-40.59375 61.957031c2.148438 7.296875 9.164063 20.714844 32.066407 23.355469 26.363281 3.035156 34.433593 17.375 36.890624 25.03125l41.933594-11.179687c4.25-1.132813 6.902344-5.523438 5.714844-9.757813zm0 0" fill="#ff9a9f"/><path d="m504 238.316406h-200.71875c-.507812-3.011718-1.292969-5.917968-2.332031-8.710937l138.621093-80.035157c3.824219-2.207031 5.136719-7.101562 2.925782-10.925781-2.207032-3.828125-7.101563-5.140625-10.925782-2.929687l-138.585937 80.011718c-7.1875-8.679687-17.386719-14.738281-28.984375-16.6875v-128.722656c0-4.417968-3.582031-8-8-8s-8 3.582032-8 8v128.722656c-11.597656 1.949219-21.796875 8.007813-28.984375 16.6875l-138.585937-80.011718c-3.824219-2.210938-8.71875-.898438-10.925782 2.929687-2.210937 3.824219-.898437 8.71875 2.925782 10.925781l138.621093 80.03125c-1.039062 2.792969-1.824219 5.703126-2.332031 8.714844h-200.71875c-4.421875 0-8 3.582032-8 8 0 4.417969 3.578125 8 8 8h200.71875c.507812 3.011719 1.292969 5.921875 2.332031 8.714844l-138.621093 80.03125c-3.824219 2.210938-5.136719 7.101562-2.925782 10.929688 2.207032 3.824218 7.101563 5.136718 10.925782 2.925781l138.585937-80.007813c7.1875 8.679688 17.386719 14.738282 28.984375 16.6875v128.71875c0 4.417969 3.582031 8 8 8s8-3.582031 8-8v-128.71875c11.597656-1.949218 21.796875-8.007812 28.984375-16.6875l138.585937 80.007813c3.824219 2.210937 8.71875.898437 10.925782-2.925781 2.210937-3.828126.898437-8.71875-2.925782-10.929688l-138.621093-80.03125c1.039062-2.792969 1.824219-5.703125 2.332031-8.714844h200.71875c4.421875 0 8-3.582031 8-8 0-4.417968-3.578125-8-8-8zm0 0" fill="#ffeaa8"/><path d="m359.480469 254.316406c.339843-2.628906.519531-5.296875.519531-8 0-2.699218-.179688-5.367187-.519531-8h-30.695313c-5.179687 0-9.660156-3.511718-10.972656-8.527344-.015625-.054687-.03125-.109374-.042969-.167968-1.320312-4.976563.808594-10.195313 5.265625-12.769532l21.566406-12.460937c-3.378906-4.214844-7.238281-8.152344-11.542968-11.800781l-18.046875 10.417968c-4.539063 2.621094-10.183594 1.714844-13.898438-1.988281-7.785156-7.757812-17.546875-13.519531-28.476562-16.460937-5.046875-1.355469-8.636719-5.792969-8.636719-11.019532v-6.984374c-2.648438-.15625-5.296875-.238282-8-.238282-2.699219 0-5.351562.082032-8 .238282v6.984374c0 5.226563-3.585938 9.664063-8.632812 11.019532-10.929688 2.9375-20.695313 8.699218-28.480469 16.460937-3.710938 3.703125-9.355469 4.609375-13.898438 1.988281l-17.949219-10.363281c-4.304687 3.648438-8.164062 7.597657-11.542968 11.8125l21.46875 12.394531c4.460937 2.578126 6.585937 7.792969 5.269531 12.769532-.015625.058594-.03125.113281-.046875.171875-1.308594 5.011719-5.789062 8.527343-10.972656 8.527343h-30.691406c-.339844 2.628907-.519532 5.296876-.519532 8 0 2.699219.179688 5.367188.519532 8h30.691406c5.183594 0 9.664062 3.511719 10.972656 8.527344.015625.054688.03125.109375.046875.167969 1.316406 4.976563-.808594 10.195313-5.269531 12.769531l-21.550782 12.460938c3.375 4.21875 7.246094 8.152344 11.550782 11.800781l18.023437-10.421875c4.542969-2.621094 10.1875-1.710938 13.898438 1.992188 7.785156 7.757812 17.546875 13.519531 28.480469 16.457031 5.046874 1.359375 8.632812 5.796875 8.632812 11.023437v6.984375c2.648438.15625 5.300781.238281 8 .238281 2.703125 0 5.351562-.082031 8-.238281v-6.984375c0-5.226562 3.589844-9.664062 8.636719-11.023437 10.929687-2.9375 20.691406-8.699219 28.476562-16.457031 3.714844-3.703126 9.359375-4.613282 13.898438-1.992188l18.027343 10.414062c4.304688-3.648437 8.179688-7.585937 11.554688-11.804687l-21.558594-12.449219c-4.457031-2.574218-6.585937-7.792968-5.265625-12.769531.015625-.058594.03125-.113281.042969-.167969 1.3125-5.015625 5.792969-8.527344 10.972656-8.527344h30.695313zm0 0" fill="#ffd064"/><path d="m398.472656 390.636719-17.445312-11.429688c-13.75 6.371094-22.421875 17.78125-24.378906 28.617188-2.109376 11.683593 3.28125 22.117187 14.070312 27.222656 1.101562.523437 2.265625.769531 3.414062.769531 3 0 5.875-1.691406 7.242188-4.578125 1.890625-3.992187.179688-8.761719-3.8125-10.652343-4.3125-2.042969-6.007812-5.28125-5.171875-9.917969 1.523437-8.429688 11.148437-17.949219 26.082031-20.03125zm0 0" fill="#ff9a9f"/><path d="m296 246.316406c0 22.09375-17.910156 40-40 40s-40-17.90625-40-40c0-22.089844 17.910156-40 40-40s40 17.910156 40 40zm0 0" fill="#fff5d7"/><path d="m272 246.316406c0 8.839844-7.164062 16-16 16s-16-7.160156-16-16c0-8.835937 7.164062-16 16-16s16 7.164063 16 16zm0 0" fill="#fff"/></svg>